<svg xmlns="http://www.w3.org/2000/svg" xmlns:xlink="http://www.w3.org/1999/xlink" width="500" zoomAndPan="magnify" viewBox="0 0 375 374.999991" height="500" preserveAspectRatio="xMidYMid meet" version="1.0"><defs><clipPath id="0b7cdb45b1"><path d="M 0 85.035156 L 375 85.035156 L 375 92.429688 L 0 92.429688 Z M 0 85.035156 " clip-rule="nonzero"/></clipPath><clipPath id="da753e7ce4"><path d="M 0 147.285156 L 375 147.285156 L 375 154.679688 L 0 154.679688 Z M 0 147.285156 " clip-rule="nonzero"/></clipPath><clipPath id="fddd72a61f"><path d="M 0 209.429688 L 375 209.429688 L 375 216.824219 L 0 216.824219 Z M 0 209.429688 " clip-rule="nonzero"/></clipPath><clipPath id="4304e8ac0b"><path d="M 0 276.824219 L 375 276.824219 L 375 284.21875 L 0 284.21875 Z M 0 276.824219 " clip-rule="nonzero"/></clipPath><clipPath id="864c0fff53"><path d="M 77.199219 213.121094 L 89.847656 213.121094 L 89.847656 284.210938 L 77.199219 284.210938 Z M 77.199219 213.121094 " clip-rule="nonzero"/></clipPath><clipPath id="b644404c88"><path d="M 223.351562 213.121094 L 236.003906 213.121094 L 236.003906 284.210938 L 223.351562 284.210938 Z M 223.351562 213.121094 " clip-rule="nonzero"/></clipPath><clipPath id="0b0ad0842f"><path d="M 138.847656 147.277344 L 153.691406 147.277344 L 153.691406 213.121094 L 138.847656 213.121094 Z M 138.847656 147.277344 " clip-rule="nonzero"/></clipPath><clipPath id="a3d9f21ba8"><path d="M 251.871094 85.03125 L 265.617188 85.03125 L 265.617188 150.980469 L 251.871094 150.980469 Z M 251.871094 85.03125 " clip-rule="nonzero"/></clipPath><clipPath id="5100c9c968"><path d="M 37.5 85.023438 L 52.179688 85.023438 L 52.179688 149.417969 L 37.5 149.417969 Z M 37.5 85.023438 " clip-rule="nonzero"/></clipPath><clipPath id="560472aa26"><path d="M 0 346.46875 L 375 346.46875 L 375 353.863281 L 0 353.863281 Z M 0 346.46875 " clip-rule="nonzero"/></clipPath><clipPath id="10de90d9f1"><path d="M 0 19.140625 L 375 19.140625 L 375 26.535156 L 0 26.535156 Z M 0 19.140625 " clip-rule="nonzero"/></clipPath><clipPath id="715c034ef8"><path d="M 159.871094 22.835938 L 173.617188 22.835938 L 173.617188 88.78125 L 159.871094 88.78125 Z M 159.871094 22.835938 " clip-rule="nonzero"/></clipPath><clipPath id="f13a11c4d2"><path d="M 190.742188 280.519531 L 204.492188 280.519531 L 204.492188 346.464844 L 190.742188 346.464844 Z M 190.742188 280.519531 " clip-rule="nonzero"/></clipPath><clipPath id="12b1914569"><path d="M 275.492188 280.519531 L 289.238281 280.519531 L 289.238281 346.464844 L 275.492188 346.464844 Z M 275.492188 280.519531 " clip-rule="nonzero"/></clipPath><clipPath id="f4edfdd48e"><path d="M 16.6875 280.519531 L 30.433594 280.519531 L 30.433594 346.464844 L 16.6875 346.464844 Z M 16.6875 280.519531 " clip-rule="nonzero"/></clipPath></defs><rect x="-37.5" width="450" fill="#ffffff" y="-37.499999" height="449.999989" fill-opacity="1"/><rect x="-37.5" width="450" fill="#ffffff" y="-37.499999" height="449.999989" fill-opacity="1"/><rect x="-37.5" width="450" fill="#5e17eb" y="-37.499999" height="449.999989" fill-opacity="1"/><g clip-path="url(#0b7cdb45b1)"><path fill="#000000" d="M -42.929688 85.035156 L 390.160156 85.035156 L 390.160156 92.429688 L -42.929688 92.429688 Z M -42.929688 85.035156 " fill-opacity="1" fill-rule="nonzero"/></g><g clip-path="url(#da753e7ce4)"><path fill="#000000" d="M -30.929688 147.285156 L 402.160156 147.285156 L 402.160156 154.679688 L -30.929688 154.679688 Z M -30.929688 147.285156 " fill-opacity="1" fill-rule="nonzero"/></g><g clip-path="url(#fddd72a61f)"><path fill="#000000" d="M -30.929688 209.429688 L 402.160156 209.429688 L 402.160156 216.824219 L -30.929688 216.824219 Z M -30.929688 209.429688 " fill-opacity="1" fill-rule="nonzero"/></g><g clip-path="url(#4304e8ac0b)"><path fill="#000000" d="M -18.929688 276.824219 L 414.160156 276.824219 L 414.160156 284.21875 L -18.929688 284.21875 Z M -18.929688 276.824219 " fill-opacity="1" fill-rule="nonzero"/></g><g clip-path="url(#864c0fff53)"><path fill="#000000" d="M 77.199219 284.210938 L 77.199219 213.101562 L 89.847656 213.101562 L 89.847656 284.210938 Z M 77.199219 284.210938 " fill-opacity="1" fill-rule="nonzero"/></g><g clip-path="url(#b644404c88)"><path fill="#000000" d="M 223.351562 284.210938 L 223.351562 213.101562 L 236.003906 213.101562 L 236.003906 284.210938 Z M 223.351562 284.210938 " fill-opacity="1" fill-rule="nonzero"/></g><g clip-path="url(#0b0ad0842f)"><path fill="#000000" d="M 138.847656 213.121094 L 138.847656 147.304688 L 153.691406 147.304688 L 153.691406 213.121094 Z M 138.847656 213.121094 " fill-opacity="1" fill-rule="nonzero"/></g><g clip-path="url(#a3d9f21ba8)"><path fill="#000000" d="M 251.871094 150.980469 L 251.871094 85.035156 L 265.617188 85.035156 L 265.617188 150.980469 Z M 251.871094 150.980469 " fill-opacity="1" fill-rule="nonzero"/></g><g clip-path="url(#5100c9c968)"><path fill="#000000" d="M 37.5 149.417969 L 37.5 85.015625 L 52.179688 85.015625 L 52.179688 149.417969 Z M 37.5 149.417969 " fill-opacity="1" fill-rule="nonzero"/></g><g clip-path="url(#560472aa26)"><path fill="#000000" d="M -30.929688 346.46875 L 402.160156 346.46875 L 402.160156 353.863281 L -30.929688 353.863281 Z M -30.929688 346.46875 " fill-opacity="1" fill-rule="nonzero"/></g><g clip-path="url(#10de90d9f1)"><path fill="#000000" d="M -42.929688 19.140625 L 390.160156 19.140625 L 390.160156 26.535156 L -42.929688 26.535156 Z M -42.929688 19.140625 " fill-opacity="1" fill-rule="nonzero"/></g><g clip-path="url(#715c034ef8)"><path fill="#000000" d="M 159.871094 88.78125 L 159.871094 22.839844 L 173.617188 22.839844 L 173.617188 88.78125 Z M 159.871094 88.78125 " fill-opacity="1" fill-rule="nonzero"/></g><g clip-path="url(#f13a11c4d2)"><path fill="#000000" d="M 190.742188 346.464844 L 190.742188 280.523438 L 204.492188 280.523438 L 204.492188 346.464844 Z M 190.742188 346.464844 " fill-opacity="1" fill-rule="nonzero"/></g><g clip-path="url(#12b1914569)"><path fill="#000000" d="M 275.492188 346.464844 L 275.492188 280.523438 L 289.238281 280.523438 L 289.238281 346.464844 Z M 275.492188 346.464844 " fill-opacity="1" fill-rule="nonzero"/></g><g clip-path="url(#f4edfdd48e)"><path fill="#000000" d="M 16.6875 346.464844 L 16.6875 280.523438 L 30.433594 280.523438 L 30.433594 346.464844 Z M 16.6875 346.464844 " fill-opacity="1" fill-rule="nonzero"/></g></svg>